# xmcd
#
# Track frame offsets: 
#        225
#        16740
#        29026
#        51910
#        64505
#        83550
#        106125
#        122945
#        136960
#        155850
#        173180
#        193594
#        209379
#        226405
#
# Disc length: 3250 seconds
#
# Revision: 1
# Processed by: cddbd v1.5PL3 Copyright (c) Steve Scherf et al.
# Submitted via: ExactAudioCopy v0.95a5
#
DISCID=bf0caf0e
DTITLE=Dog Party Blues Band - Live im Topos
DYEAR=2000
DGENRE=Blues
TTITLE0=Neighbour neighbour
TTITLE1=Don´t set me free
TTITLE2=I put a spell on you
TTITLE3=Outskirts of town
TTITLE4=Murder by numbers
TTITLE5=Another girl to stay
TTITLE6=Nasty habits
TTITLE7=Hard way
TTITLE8=Up from the skies
TTITLE9=Two steps from heaven
TTITLE10=Hide away
TTITLE11=Neighbour neighbour (akustisch)
TTITLE12=Don´t set me free (elektrisch)
TTITLE13=I put a spell on you (akustisch)
EXTD=Dog Party Blues Band sind:\n\nAstrid Barth: Gesang\nPhilipp Roeme
EXTD=r: Gitarre\nTill Brandt: Bass\nMarko Menrath: Schlagzeug\n\nund a
EXTD=ls Gast  Pit Lenz: Harfe\n\nAufgenommen und gemischt von Thomas N
EXTD=atz live im Torros - leverkusen am 22 and 23.11.2000
EXTT0=
EXTT1=
EXTT2=
EXTT3=
EXTT4=
EXTT5=
EXTT6=
EXTT7=
EXTT8=
EXTT9=
EXTT10=
EXTT11=
EXTT12=
EXTT13=
PLAYORDER=
